<?xml version="1.0" encoding="UTF-8"?>
<!DOCTYPE svg PUBLIC "-//W3C//DTD SVG 1.1//EN" "http://www.w3.org/Graphics/SVG/1.1/DTD/svg11.dtd">
<svg xmlns="http://www.w3.org/2000/svg" version="1.1" width="180px" height="180px" style="shape-rendering:geometricPrecision; text-rendering:geometricPrecision; image-rendering:optimizeQuality; fill-rule:evenodd; clip-rule:evenodd" xmlns:xlink="http://www.w3.org/1999/xlink">
<g><path style="opacity:1" fill="#f9f9f9" d="M -0.5,-0.5 C 59.5,-0.5 119.5,-0.5 179.5,-0.5C 179.5,7.5 179.5,15.5 179.5,23.5C 161.049,36.3902 141.716,47.7235 121.5,57.5C 118.856,58.4933 116.19,59.4933 113.5,60.5C 106.861,59.3658 100.194,58.8658 93.5,59C 92.5,59.3333 91.5,59.6667 90.5,60C 88.8767,62.0795 87.3767,64.2462 86,66.5C 83.0375,64.7563 79.8708,64.2563 76.5,65C 71.3343,67.7484 66.3343,70.7484 61.5,74C 58.3821,75.7275 55.0487,76.5608 51.5,76.5C 39.568,74.0112 27.568,71.8445 15.5,70C 10.2436,67.8593 4.91029,66.0259 -0.5,64.5C -0.5,42.8333 -0.5,21.1667 -0.5,-0.5 Z"/></g>
<g><path style="opacity:1" fill="#020202" d="M 179.5,23.5 C 179.5,49.1667 179.5,74.8333 179.5,100.5C 174.373,104.455 169.373,108.622 164.5,113C 158.185,117.741 151.351,121.575 144,124.5C 141.632,123.283 139.132,122.449 136.5,122C 135.177,121.184 134.511,120.017 134.5,118.5C 134.5,118.167 134.5,117.833 134.5,117.5C 135.267,118.172 135.934,119.005 136.5,120C 139.255,120.849 141.921,121.516 144.5,122C 144.793,114.915 144.46,107.748 143.5,100.5C 142.473,87.7149 138.973,75.7149 133,64.5C 130.49,61.3354 127.324,59.3354 123.5,58.5C 122.508,58.6716 121.842,58.3382 121.5,57.5C 141.716,47.7235 161.049,36.3902 179.5,23.5 Z"/></g>
<g><path style="opacity:1" fill="#020202" d="M -0.5,64.5 C 4.91029,66.0259 10.2436,67.8593 15.5,70C 27.568,71.8445 39.568,74.0112 51.5,76.5C 52.1667,77.1667 52.8333,77.8333 53.5,78.5C 52.1667,78.5 50.8333,78.5 49.5,78.5C 49.6664,86.84 49.4997,95.1733 49,103.5C 48.3054,106.385 47.4721,109.218 46.5,112C 46.8618,113.434 47.5285,114.601 48.5,115.5C 48.1667,115.5 47.8333,115.5 47.5,115.5C 46.5,115.5 45.5,115.5 44.5,115.5C 43.4913,121.53 39.8246,124.53 33.5,124.5C 31.7253,130.11 29.7253,135.61 27.5,141C 23.7887,141.439 20.1221,141.106 16.5,140C 10.8465,138.06 5.17983,136.226 -0.5,134.5C -0.5,111.167 -0.5,87.8333 -0.5,64.5 Z"/></g>
<g><path style="opacity:1" fill="#dbdada" d="M 123.5,58.5 C 127.324,59.3354 130.49,61.3354 133,64.5C 138.973,75.7149 142.473,87.7149 143.5,100.5C 142.609,101.11 141.609,101.443 140.5,101.5C 137.835,98.6653 135.335,95.6653 133,92.5C 132.717,84.3676 130.717,76.701 127,69.5C 123.984,66.6511 121.15,63.6511 118.5,60.5C 120.291,59.8302 121.958,59.1635 123.5,58.5 Z"/></g>
<g><path style="opacity:1" fill="#ac8575" d="M 106.5,82.5 C 105.206,83.2899 104.039,84.2899 103,85.5C 102.439,84.9781 101.772,84.6448 101,84.5C 98.7385,85.4259 96.7385,86.7592 95,88.5C 94.6667,88.1667 94.3333,87.8333 94,87.5C 93.6667,88.5 93.3333,89.5 93,90.5C 90.6142,91.7633 88.7808,93.5967 87.5,96C 83.5227,96.8794 79.8561,96.3794 76.5,94.5C 84.5727,94.7532 89.9061,91.0866 92.5,83.5C 95.2235,81.7188 98.0568,80.0521 101,78.5C 103.015,79.6966 104.849,81.0299 106.5,82.5 Z"/></g>
<g><path style="opacity:1" fill="#c59785" d="M 76.5,94.5 C 79.8561,96.3794 83.5227,96.8794 87.5,96C 88.7808,93.5967 90.6142,91.7633 93,90.5C 93.3333,89.5 93.6667,88.5 94,87.5C 94.3333,87.8333 94.6667,88.1667 95,88.5C 96.7385,86.7592 98.7385,85.4259 101,84.5C 101.772,84.6448 102.439,84.9781 103,85.5C 104.039,84.2899 105.206,83.2899 106.5,82.5C 115.051,85.7741 123.384,89.6074 131.5,94C 135.601,97.4274 138.934,101.427 141.5,106C 140.939,108.727 139.273,110.227 136.5,110.5C 127.585,107.082 118.918,103.082 110.5,98.5C 110.167,98.8333 109.833,99.1667 109.5,99.5C 115.833,103.396 122.5,106.729 129.5,109.5C 133.697,114.103 132.864,117.436 127,119.5C 120.12,116.644 113.287,113.644 106.5,110.5C 105.167,111.167 105.167,111.833 106.5,112.5C 112.199,114.766 117.699,117.433 123,120.5C 123.825,122.701 123.325,124.534 121.5,126C 118.518,126.498 115.518,126.665 112.5,126.5C 110.788,123.289 108.121,121.456 104.5,121C 100.012,116.524 95.3453,116.357 90.5,120.5C 89.0486,117.218 86.5486,115.218 83,114.5C 79.6088,115.886 76.7754,118.052 74.5,121C 73.1268,121.875 71.6268,122.375 70,122.5C 62.6267,120.701 55.46,118.367 48.5,115.5C 47.5285,114.601 46.8618,113.434 46.5,112C 47.4721,109.218 48.3054,106.385 49,103.5C 49.4997,95.1733 49.6664,86.84 49.5,78.5C 50.8333,78.5 52.1667,78.5 53.5,78.5C 62.5964,75.0812 71.2631,70.7478 79.5,65.5C 81.2251,66.0149 82.8917,66.6816 84.5,67.5C 81.1738,69.994 78.3405,72.994 76,76.5C 75.289,78.8991 75.4557,81.2324 76.5,83.5C 74.1561,86.5014 73.3228,89.8347 74,93.5C 74.6708,94.2524 75.5041,94.5858 76.5,94.5 Z"/></g>
<g><path style="opacity:1" fill="#f8f8f8" d="M 179.5,100.5 C 179.5,126.833 179.5,153.167 179.5,179.5C 119.5,179.5 59.5,179.5 -0.5,179.5C -0.5,164.5 -0.5,149.5 -0.5,134.5C 5.17983,136.226 10.8465,138.06 16.5,140C 20.1221,141.106 23.7887,141.439 27.5,141C 29.7253,135.61 31.7253,130.11 33.5,124.5C 39.8246,124.53 43.4913,121.53 44.5,115.5C 45.5,115.5 46.5,115.5 47.5,115.5C 49.6168,117.063 51.9501,118.396 54.5,119.5C 57.1724,128.297 61.8391,129.63 68.5,123.5C 69.1798,126.36 70.5131,128.86 72.5,131C 77.3907,131.484 81.724,133.151 85.5,136C 88.2305,136.728 90.8971,136.562 93.5,135.5C 95.5583,137.077 97.8916,138.077 100.5,138.5C 105.241,135.797 110.241,133.631 115.5,132C 117.17,129.441 119.503,127.775 122.5,127C 124.451,125.266 125.451,123.099 125.5,120.5C 128.652,121.041 131.152,120.041 133,117.5C 133.383,118.056 133.883,118.389 134.5,118.5C 134.511,120.017 135.177,121.184 136.5,122C 139.132,122.449 141.632,123.283 144,124.5C 151.351,121.575 158.185,117.741 164.5,113C 169.373,108.622 174.373,104.455 179.5,100.5 Z"/></g>
<g><path style="opacity:1" fill="#dbdbdb" d="M 42.5,76.5 C 44.4672,76.2606 46.3005,76.5939 48,77.5C 50.4439,92.6695 48.1106,107.003 41,120.5C 39.2151,121.24 37.3817,121.907 35.5,122.5C 35.1667,122.167 34.8333,121.833 34.5,121.5C 38.3679,112.063 41.5345,102.396 44,92.5C 44.8501,87.0167 44.3501,81.6834 42.5,76.5 Z"/></g>
<g><path style="opacity:1" fill="#52524f" d="M 143.5,100.5 C 144.46,107.748 144.793,114.915 144.5,122C 141.921,121.516 139.255,120.849 136.5,120C 135.934,119.005 135.267,118.172 134.5,117.5C 133.85,115.565 133.517,113.565 133.5,111.5C 142.283,112.405 144.616,109.071 140.5,101.5C 141.609,101.443 142.609,101.11 143.5,100.5 Z"/></g>
<g><path style="opacity:1" fill="#211310" d="M 121.5,57.5 C 121.842,58.3382 122.508,58.6716 123.5,58.5C 121.958,59.1635 120.291,59.8302 118.5,60.5C 121.15,63.6511 123.984,66.6511 127,69.5C 130.717,76.701 132.717,84.3676 133,92.5C 135.335,95.6653 137.835,98.6653 140.5,101.5C 144.616,109.071 142.283,112.405 133.5,111.5C 133.517,113.565 133.85,115.565 134.5,117.5C 134.5,117.833 134.5,118.167 134.5,118.5C 133.883,118.389 133.383,118.056 133,117.5C 131.152,120.041 128.652,121.041 125.5,120.5C 125.451,123.099 124.451,125.266 122.5,127C 119.503,127.775 117.17,129.441 115.5,132C 110.241,133.631 105.241,135.797 100.5,138.5C 97.8916,138.077 95.5583,137.077 93.5,135.5C 90.8971,136.562 88.2305,136.728 85.5,136C 81.724,133.151 77.3907,131.484 72.5,131C 70.5131,128.86 69.1798,126.36 68.5,123.5C 61.8391,129.63 57.1724,128.297 54.5,119.5C 51.9501,118.396 49.6168,117.063 47.5,115.5C 47.8333,115.5 48.1667,115.5 48.5,115.5C 55.46,118.367 62.6267,120.701 70,122.5C 71.6268,122.375 73.1268,121.875 74.5,121C 76.7754,118.052 79.6088,115.886 83,114.5C 86.5486,115.218 89.0486,117.218 90.5,120.5C 95.3453,116.357 100.012,116.524 104.5,121C 108.121,121.456 110.788,123.289 112.5,126.5C 115.518,126.665 118.518,126.498 121.5,126C 123.325,124.534 123.825,122.701 123,120.5C 117.699,117.433 112.199,114.766 106.5,112.5C 105.167,111.833 105.167,111.167 106.5,110.5C 113.287,113.644 120.12,116.644 127,119.5C 132.864,117.436 133.697,114.103 129.5,109.5C 122.5,106.729 115.833,103.396 109.5,99.5C 109.833,99.1667 110.167,98.8333 110.5,98.5C 118.918,103.082 127.585,107.082 136.5,110.5C 139.273,110.227 140.939,108.727 141.5,106C 138.934,101.427 135.601,97.4274 131.5,94C 123.384,89.6074 115.051,85.7741 106.5,82.5C 104.849,81.0299 103.015,79.6966 101,78.5C 98.0568,80.0521 95.2235,81.7188 92.5,83.5C 89.9061,91.0866 84.5727,94.7532 76.5,94.5C 75.5041,94.5858 74.6708,94.2524 74,93.5C 73.3228,89.8347 74.1561,86.5014 76.5,83.5C 75.4557,81.2324 75.289,78.8991 76,76.5C 78.3405,72.994 81.1738,69.994 84.5,67.5C 82.8917,66.6816 81.2251,66.0149 79.5,65.5C 71.2631,70.7478 62.5964,75.0812 53.5,78.5C 52.8333,77.8333 52.1667,77.1667 51.5,76.5C 55.0487,76.5608 58.3821,75.7275 61.5,74C 66.3343,70.7484 71.3343,67.7484 76.5,65C 79.8708,64.2563 83.0375,64.7563 86,66.5C 87.3767,64.2462 88.8767,62.0795 90.5,60C 91.5,59.6667 92.5,59.3333 93.5,59C 100.194,58.8658 106.861,59.3658 113.5,60.5C 116.19,59.4933 118.856,58.4933 121.5,57.5 Z"/></g>
<g><path style="opacity:1" fill="#dfc7bb" d="M 88.5,123.5 C 87.2269,119.08 84.2269,117.413 79.5,118.5C 82.5102,115.724 85.3435,116.058 88,119.5C 88.49,120.793 88.6567,122.127 88.5,123.5 Z"/></g>
<g><path style="opacity:1" fill="#9c8277" d="M 79.5,118.5 C 84.2269,117.413 87.2269,119.08 88.5,123.5C 87.9744,125.23 86.9744,126.564 85.5,127.5C 85.5,126.833 85.1667,126.5 84.5,126.5C 78.4446,128.101 76.4446,125.767 78.5,119.5C 78.5,118.833 78.8333,118.5 79.5,118.5 Z"/></g>
<g><path style="opacity:1" fill="#bfa399" d="M 77.5,82.5 C 79.3792,83.3414 81.3792,83.6747 83.5,83.5C 85.543,84.5794 86.8763,86.246 87.5,88.5C 84.7593,92.202 81.0927,93.702 76.5,93C 75.7476,92.3292 75.4142,91.4959 75.5,90.5C 80.1097,90.8802 82.7764,88.8802 83.5,84.5C 81.4352,84.5172 79.4352,84.8505 77.5,85.5C 77.5,84.5 77.5,83.5 77.5,82.5 Z"/></g>
<g><path style="opacity:1" fill="#f0e1da" d="M 75.5,90.5 C 75.8925,88.7162 76.5592,87.0495 77.5,85.5C 79.4352,84.8505 81.4352,84.5172 83.5,84.5C 82.7764,88.8802 80.1097,90.8802 75.5,90.5 Z"/></g>
<g><path style="opacity:1" fill="#e8b299" d="M 96.5,78.5 C 94.4446,79.5588 93.1112,81.2254 92.5,83.5C 90.6053,84.973 88.9387,86.6397 87.5,88.5C 86.8763,86.246 85.543,84.5794 83.5,83.5C 81.1565,80.8182 80.4898,77.8182 81.5,74.5C 81.8333,75.1667 82.1667,75.8333 82.5,76.5C 83.853,75.3147 85.0197,73.9814 86,72.5C 86.5613,73.0219 87.228,73.3552 88,73.5C 89.6303,72.2869 91.4636,71.4536 93.5,71C 91.9469,68.1631 92.2802,65.6631 94.5,63.5C 95.8333,64.1667 96.8333,65.1667 97.5,66.5C 101.377,67.197 105.21,67.8637 109,68.5C 110.016,67.3659 110.683,67.6992 111,69.5C 111.667,66.8333 112.333,66.8333 113,69.5C 114.077,66.2113 115.91,65.7113 118.5,68C 120.432,69.3518 121.766,71.1851 122.5,73.5C 124.718,72.8123 126.218,73.8123 127,76.5C 128.083,82.2748 126.25,83.9414 121.5,81.5C 118.154,82.282 114.821,81.9487 111.5,80.5C 107.5,76.8884 103.333,74.2217 99,72.5C 97.331,74.1691 96.4977,76.1691 96.5,78.5 Z"/></g>
<g><path style="opacity:1" fill="#e1b5a3" d="M 96.5,78.5 C 96.4977,76.1691 97.331,74.1691 99,72.5C 103.333,74.2217 107.5,76.8884 111.5,80.5C 114.821,81.9487 118.154,82.282 121.5,81.5C 126.25,83.9414 128.083,82.2748 127,76.5C 126.218,73.8123 124.718,72.8123 122.5,73.5C 121.766,71.1851 120.432,69.3518 118.5,68C 115.91,65.7113 114.077,66.2113 113,69.5C 112.333,66.8333 111.667,66.8333 111,69.5C 110.683,67.6992 110.016,67.3659 109,68.5C 105.21,67.8637 101.377,67.197 97.5,66.5C 96.8333,65.1667 95.8333,64.1667 94.5,63.5C 92.2802,65.6631 91.9469,68.1631 93.5,71C 91.4636,71.4536 89.6303,72.2869 88,73.5C 87.228,73.3552 86.5613,73.0219 86,72.5C 85.0197,73.9814 83.853,75.3147 82.5,76.5C 82.1667,75.8333 81.8333,75.1667 81.5,74.5C 80.4898,77.8182 81.1565,80.8182 83.5,83.5C 81.3792,83.6747 79.3792,83.3414 77.5,82.5C 77.2475,79.6802 77.7475,77.0135 79,74.5C 84.0219,70.9784 88.1885,66.645 91.5,61.5C 99.8002,60.7124 108.134,60.8791 116.5,62C 126.965,69.0473 131.465,78.8806 130,91.5C 120.276,86.3876 110.443,81.3876 100.5,76.5C 99.4763,77.8532 98.143,78.5198 96.5,78.5 Z"/></g>
<g><path style="opacity:1" fill="#ded2c6" d="M 56.5,121.5 C 59.5453,120.822 62.5453,121.489 65.5,123.5C 61.7976,126.425 58.7976,125.759 56.5,121.5 Z"/></g>
<g><path style="opacity:1" fill="#f2e4df" d="M 84.5,126.5 C 79.0246,126.56 77.6913,124.394 80.5,120C 86.2623,119.582 87.5956,121.749 84.5,126.5 Z"/></g>
<g><path style="opacity:1" fill="#d4aea0" d="M 78.5,119.5 C 76.4446,125.767 78.4446,128.101 84.5,126.5C 85.1667,126.5 85.5,126.833 85.5,127.5C 81.5675,132.464 77.0675,132.797 72,128.5C 71.2025,126.741 71.3691,125.074 72.5,123.5C 74.7901,122.533 76.7901,121.2 78.5,119.5 Z"/></g>
<g><path style="opacity:1" fill="#ae9486" d="M 112.5,126.5 C 113.347,127.966 114.68,128.8 116.5,129C 114.691,131.409 112.358,132.409 109.5,132C 110.869,130.281 111.869,128.448 112.5,126.5 Z"/></g>
<g><path style="opacity:1" fill="#d6ab9b" d="M 95.5,118.5 C 101.802,118.272 103.969,120.939 102,126.5C 99.106,129.361 95.9393,131.861 92.5,134C 89.7695,134.728 87.1029,134.562 84.5,133.5C 83.479,132.998 83.3123,132.332 84,131.5C 87.7275,126.947 91.5608,122.614 95.5,118.5 Z"/></g>
<g><path style="opacity:1" fill="#f6eae5" d="M 96.5,120.5 C 100.74,121.143 101.74,122.976 99.5,126C 94.7217,126.073 93.7217,124.24 96.5,120.5 Z"/></g>
<g><path style="opacity:1" fill="#d3b5a7" d="M 105.5,123.5 C 106.822,123.33 107.989,123.663 109,124.5C 109.894,129.965 107.727,133.798 102.5,136C 99.8604,136.839 97.5271,136.339 95.5,134.5C 99.5881,131.417 102.921,127.75 105.5,123.5 Z"/></g>
</svg>
